<?xml version="1.0" encoding="UTF-8"?>
<svg id="Layer_2" data-name="Layer 2" xmlns="http://www.w3.org/2000/svg" viewBox="0 0 115.23 175.17">
  <defs>
    <style>
      .cls-1 {
        fill: #fff;
      }

      .cls-2 {
        fill: #f47a20;
      }

      .cls-3 {
        fill: #223f99;
      }
    </style>
  </defs>
  <g id="Layer_1-2" data-name="Layer 1">
    <g id="Cyan">
      <g>
        <path class="cls-2" d="M108.45,93.93v-43.09C108.45,22.76,85.69,0,57.61,0h0C29.53,0,6.77,22.76,6.77,50.84v43.09c-3.82.52-6.77,3.78-6.77,7.74h0c0,4.32,3.5,7.82,7.82,7.82h2.92c-2.16,4.87-2.67,8.93-2.64,12.02.11,11.79,8.06,16.94,9.46,29.86,1.09,10-2.42,18.52-5.22,23.77,13.81-9.23,17.19-17.5,17.73-23.34,1.05-11.28-8.13-17.31-7.72-30.1.15-4.52,1.45-8.61,3.29-12.2h9.65c-2.16,4.87-2.67,8.93-2.64,12.02.11,11.79,8.06,16.94,9.46,29.86,1.09,10-2.42,18.52-5.22,23.77,13.81-9.23,17.19-17.5,17.73-23.34,1.05-11.28-8.13-17.31-7.72-30.1.15-4.52,1.45-8.61,3.29-12.2h9.65c-2.16,4.87-2.67,8.93-2.64,12.02.11,11.79,8.06,16.94,9.46,29.86,1.09,10-2.42,18.52-5.22,23.77,13.81-9.23,17.19-17.5,17.73-23.34,1.05-11.28-8.13-17.31-7.72-30.1.15-4.52,1.45-8.61,3.29-12.2h9.65c-2.16,4.87-2.67,8.93-2.64,12.02.11,11.79,8.06,16.94,9.46,29.86,1.09,10-2.42,18.52-5.22,23.77,13.81-9.23,17.19-17.5,17.73-23.34,1.05-11.28-8.13-17.31-7.72-30.1.15-4.52,1.45-8.61,3.29-12.2h8.12c4.32,0,7.82-3.5,7.82-7.82h0c0-3.96-2.95-7.23-6.77-7.74v-.04Z"/>
        <circle class="cls-1" cx="37.66" cy="56.01" r="19.65"/>
        <circle class="cls-1" cx="77.57" cy="56.01" r="19.65"/>
        <circle class="cls-3" cx="77.57" cy="56.01" r="10.06"/>
        <circle class="cls-3" cx="38.13" cy="56.01" r="10.06"/>
      </g>
    </g>
  </g>
</svg>