<?xml version="1.0" encoding="UTF-8"?>
<svg id="Layer_2" data-name="Layer 2" xmlns="http://www.w3.org/2000/svg" viewBox="0 0 203.77 201.43">
  <defs>
    <style>
      .cls-1 {
        fill: #f7ec13;
      }
    </style>
  </defs>
  <g id="Layer_1-2" data-name="Layer 1">
    <g id="_2" data-name=" 2">
      <path class="cls-1" d="M104.91,111.09l96.37-34.06c-8.22-16.96-21.84-30.79-38.64-39.26-2.93-6.03-8.95-14.96-21.4-22.85C117.94.16,89.42-.05,83.03,0c2.61,4.33,6.11,11.72,6.11,21.13,0,6.78-1.82,12.49-3.81,16.79-10,5.09-18.87,12.08-26.13,20.5C47.56,41.9,25.79,30.63,0,28.23c13.43,15.31,16.39,28.01,16.6,36.81.34,14.51-9.35,21.65-6.43,37.13.4,2.1,1.4,7.43,4.59,12.61-3.15,5.2-4.12,10.54-4.49,12.64-2.79,15.5,6.95,22.57,6.73,37.08-.14,8.8-3,21.52-16.31,36.93,25.77-2.6,47.45-14.05,58.96-30.66,15.78,18.02,38.99,29.36,64.82,29.25,36.01-.14,66.74-22.48,79.3-54l-98.85-34.94h-.01Z"/>
    </g>
  </g>
</svg>